<mxfile host="Electron" modified="2023-04-08T10:11:10.633Z" agent="Mozilla/5.0 (Macintosh; Intel Mac OS X 10_15_7) AppleWebKit/537.36 (KHTML, like Gecko) draw.io/21.1.2 Chrome/106.0.5249.199 Electron/21.4.3 Safari/537.36" etag="LbKAH-5xGqzy_AN-Ebi3" version="21.1.2" type="device" pages="4">
  <diagram name="Use case" id="ZyN0My7JDXTN8pZAFR84">
    <mxGraphModel dx="2133" dy="894" grid="1" gridSize="10" guides="1" tooltips="1" connect="1" arrows="1" fold="1" page="1" pageScale="1" pageWidth="827" pageHeight="1169" math="0" shadow="0">
      <root>
        <mxCell id="0" />
        <mxCell id="1" parent="0" />
        <mxCell id="_e0b-zAOuBWnr5iA6v1e-1" value="Medical Resource Management Resources" style="swimlane;whiteSpace=wrap;html=1;startSize=42;gradientColor=none;" parent="1" vertex="1">
          <mxGeometry x="101" y="120" width="950" height="820" as="geometry" />
        </mxCell>
        <mxCell id="_e0b-zAOuBWnr5iA6v1e-6" value="Manage&lt;br&gt;institutions" style="ellipse;whiteSpace=wrap;html=1;" parent="_e0b-zAOuBWnr5iA6v1e-1" vertex="1">
          <mxGeometry x="699" y="100" width="111" height="60" as="geometry" />
        </mxCell>
        <mxCell id="_e0b-zAOuBWnr5iA6v1e-7" value="Manage resource types" style="ellipse;whiteSpace=wrap;html=1;" parent="_e0b-zAOuBWnr5iA6v1e-1" vertex="1">
          <mxGeometry x="699" y="190" width="111" height="60" as="geometry" />
        </mxCell>
        <mxCell id="_e0b-zAOuBWnr5iA6v1e-8" value="Manage&lt;br&gt;Clerks" style="ellipse;whiteSpace=wrap;html=1;" parent="_e0b-zAOuBWnr5iA6v1e-1" vertex="1">
          <mxGeometry x="699" y="290" width="111" height="60" as="geometry" />
        </mxCell>
        <mxCell id="_e0b-zAOuBWnr5iA6v1e-9" value="Manage&lt;br&gt;resources" style="ellipse;whiteSpace=wrap;html=1;" parent="_e0b-zAOuBWnr5iA6v1e-1" vertex="1">
          <mxGeometry x="59" y="100" width="111" height="60" as="geometry" />
        </mxCell>
        <mxCell id="_e0b-zAOuBWnr5iA6v1e-10" value="Book resource&lt;br&gt;for a patient" style="ellipse;whiteSpace=wrap;html=1;" parent="_e0b-zAOuBWnr5iA6v1e-1" vertex="1">
          <mxGeometry x="59" y="200" width="111" height="60" as="geometry" />
        </mxCell>
        <mxCell id="_e0b-zAOuBWnr5iA6v1e-19" value="Login / logout" style="ellipse;whiteSpace=wrap;html=1;" parent="_e0b-zAOuBWnr5iA6v1e-1" vertex="1">
          <mxGeometry x="699" y="571" width="121" height="60" as="geometry" />
        </mxCell>
        <mxCell id="ns-p1TPvDox0f2dWmcVZ-1" value="Check available&lt;br&gt;slots" style="ellipse;whiteSpace=wrap;html=1;" parent="_e0b-zAOuBWnr5iA6v1e-1" vertex="1">
          <mxGeometry x="280" y="204" width="120" height="50" as="geometry" />
        </mxCell>
        <mxCell id="ns-p1TPvDox0f2dWmcVZ-2" value="&amp;lt;&amp;lt;extend&amp;gt;&amp;gt;" style="html=1;verticalAlign=bottom;labelBackgroundColor=none;endArrow=open;endFill=0;dashed=1;rounded=0;exitX=1;exitY=0.5;exitDx=0;exitDy=0;entryX=0;entryY=0.5;entryDx=0;entryDy=0;" parent="_e0b-zAOuBWnr5iA6v1e-1" source="_e0b-zAOuBWnr5iA6v1e-10" target="ns-p1TPvDox0f2dWmcVZ-1" edge="1">
          <mxGeometry width="160" relative="1" as="geometry">
            <mxPoint x="159" y="310" as="sourcePoint" />
            <mxPoint x="319" y="310" as="targetPoint" />
          </mxGeometry>
        </mxCell>
        <mxCell id="_e0b-zAOuBWnr5iA6v1e-2" value="Clerk" style="shape=umlActor;verticalLabelPosition=bottom;verticalAlign=top;html=1;outlineConnect=0;" parent="1" vertex="1">
          <mxGeometry x="-5" y="284" width="30" height="60" as="geometry" />
        </mxCell>
        <mxCell id="_e0b-zAOuBWnr5iA6v1e-5" value="Admin" style="shape=umlActor;verticalLabelPosition=bottom;verticalAlign=top;html=1;outlineConnect=0;" parent="1" vertex="1">
          <mxGeometry x="1130" y="300" width="30" height="60" as="geometry" />
        </mxCell>
        <mxCell id="_e0b-zAOuBWnr5iA6v1e-11" value="" style="edgeStyle=none;html=1;endArrow=none;verticalAlign=bottom;rounded=0;entryX=0;entryY=0.5;entryDx=0;entryDy=0;exitX=1;exitY=0.3333333333333333;exitDx=0;exitDy=0;exitPerimeter=0;" parent="1" source="_e0b-zAOuBWnr5iA6v1e-2" target="_e0b-zAOuBWnr5iA6v1e-9" edge="1">
          <mxGeometry width="160" relative="1" as="geometry">
            <mxPoint x="140" y="80" as="sourcePoint" />
            <mxPoint x="300" y="80" as="targetPoint" />
          </mxGeometry>
        </mxCell>
        <mxCell id="_e0b-zAOuBWnr5iA6v1e-12" value="" style="edgeStyle=none;html=1;endArrow=none;verticalAlign=bottom;rounded=0;exitX=1;exitY=0.3333333333333333;exitDx=0;exitDy=0;exitPerimeter=0;entryX=0;entryY=0.5;entryDx=0;entryDy=0;" parent="1" source="_e0b-zAOuBWnr5iA6v1e-2" target="_e0b-zAOuBWnr5iA6v1e-10" edge="1">
          <mxGeometry width="160" relative="1" as="geometry">
            <mxPoint x="130" y="450" as="sourcePoint" />
            <mxPoint x="290" y="450" as="targetPoint" />
          </mxGeometry>
        </mxCell>
        <mxCell id="_e0b-zAOuBWnr5iA6v1e-13" value="" style="edgeStyle=none;html=1;endArrow=none;verticalAlign=bottom;rounded=0;entryX=0;entryY=0.3333333333333333;entryDx=0;entryDy=0;entryPerimeter=0;exitX=1;exitY=0.5;exitDx=0;exitDy=0;" parent="1" source="_e0b-zAOuBWnr5iA6v1e-6" target="_e0b-zAOuBWnr5iA6v1e-5" edge="1">
          <mxGeometry width="160" relative="1" as="geometry">
            <mxPoint x="880" y="180" as="sourcePoint" />
            <mxPoint x="1040" y="180" as="targetPoint" />
          </mxGeometry>
        </mxCell>
        <mxCell id="_e0b-zAOuBWnr5iA6v1e-15" value="" style="edgeStyle=none;html=1;endArrow=none;verticalAlign=bottom;rounded=0;exitX=1;exitY=0.5;exitDx=0;exitDy=0;entryX=0;entryY=0.3333333333333333;entryDx=0;entryDy=0;entryPerimeter=0;" parent="1" source="_e0b-zAOuBWnr5iA6v1e-8" target="_e0b-zAOuBWnr5iA6v1e-5" edge="1">
          <mxGeometry width="160" relative="1" as="geometry">
            <mxPoint x="980" y="400" as="sourcePoint" />
            <mxPoint x="1140" y="400" as="targetPoint" />
          </mxGeometry>
        </mxCell>
        <mxCell id="_e0b-zAOuBWnr5iA6v1e-17" value="" style="edgeStyle=none;html=1;endArrow=none;verticalAlign=bottom;rounded=0;entryX=0;entryY=0.3333333333333333;entryDx=0;entryDy=0;entryPerimeter=0;exitX=1;exitY=0.5;exitDx=0;exitDy=0;" parent="1" source="_e0b-zAOuBWnr5iA6v1e-7" target="_e0b-zAOuBWnr5iA6v1e-5" edge="1">
          <mxGeometry width="160" relative="1" as="geometry">
            <mxPoint x="560" y="310" as="sourcePoint" />
            <mxPoint x="720" y="310" as="targetPoint" />
          </mxGeometry>
        </mxCell>
        <mxCell id="_e0b-zAOuBWnr5iA6v1e-18" value="Everybody" style="shape=umlActor;html=1;verticalLabelPosition=bottom;verticalAlign=top;align=center;" parent="1" vertex="1">
          <mxGeometry x="1130" y="699" width="30" height="60" as="geometry" />
        </mxCell>
        <mxCell id="_e0b-zAOuBWnr5iA6v1e-20" value="" style="edgeStyle=none;html=1;endArrow=none;verticalAlign=bottom;rounded=0;entryX=0;entryY=0.3333333333333333;entryDx=0;entryDy=0;entryPerimeter=0;exitX=1;exitY=0.5;exitDx=0;exitDy=0;" parent="1" source="_e0b-zAOuBWnr5iA6v1e-19" target="_e0b-zAOuBWnr5iA6v1e-18" edge="1">
          <mxGeometry width="160" relative="1" as="geometry">
            <mxPoint x="750" y="530" as="sourcePoint" />
            <mxPoint x="910" y="530" as="targetPoint" />
          </mxGeometry>
        </mxCell>
      </root>
    </mxGraphModel>
  </diagram>
  <diagram id="l06o14hq9seUa_Usabkb" name="ERD">
    <mxGraphModel dx="1306" dy="894" grid="1" gridSize="10" guides="1" tooltips="1" connect="1" arrows="1" fold="1" page="1" pageScale="1" pageWidth="827" pageHeight="1169" math="0" shadow="0">
      <root>
        <mxCell id="0" />
        <mxCell id="1" parent="0" />
        <mxCell id="RCPrqhRZ-Z8AgEjsx5ML-3" value="Institution" style="swimlane;childLayout=stackLayout;horizontal=1;startSize=30;horizontalStack=0;rounded=1;fontSize=14;fontStyle=0;strokeWidth=2;resizeParent=0;resizeLast=1;shadow=0;dashed=0;align=center;arcSize=4;whiteSpace=wrap;html=1;" parent="1" vertex="1">
          <mxGeometry x="110" y="170" width="160" height="120" as="geometry" />
        </mxCell>
        <mxCell id="RCPrqhRZ-Z8AgEjsx5ML-4" value="- id INT (PK)&lt;br&gt;- name STRING&lt;br&gt;- location STRING" style="align=left;strokeColor=none;fillColor=none;spacingLeft=4;fontSize=12;verticalAlign=top;resizable=0;rotatable=0;part=1;html=1;" parent="RCPrqhRZ-Z8AgEjsx5ML-3" vertex="1">
          <mxGeometry y="30" width="160" height="90" as="geometry" />
        </mxCell>
        <mxCell id="RCPrqhRZ-Z8AgEjsx5ML-5" value="ResourceType" style="swimlane;childLayout=stackLayout;horizontal=1;startSize=30;horizontalStack=0;rounded=1;fontSize=14;fontStyle=0;strokeWidth=2;resizeParent=0;resizeLast=1;shadow=0;dashed=0;align=center;arcSize=4;whiteSpace=wrap;html=1;" parent="1" vertex="1">
          <mxGeometry x="303" y="170" width="160" height="120" as="geometry" />
        </mxCell>
        <mxCell id="RCPrqhRZ-Z8AgEjsx5ML-6" value="- id INT (PK)&lt;br&gt;- name STRING (UNQ)" style="align=left;strokeColor=none;fillColor=none;spacingLeft=4;fontSize=12;verticalAlign=top;resizable=0;rotatable=0;part=1;html=1;" parent="RCPrqhRZ-Z8AgEjsx5ML-5" vertex="1">
          <mxGeometry y="30" width="160" height="90" as="geometry" />
        </mxCell>
        <mxCell id="RCPrqhRZ-Z8AgEjsx5ML-7" value="Resource" style="swimlane;childLayout=stackLayout;horizontal=1;startSize=30;horizontalStack=0;rounded=1;fontSize=14;fontStyle=0;strokeWidth=2;resizeParent=0;resizeLast=1;shadow=0;dashed=0;align=center;arcSize=4;whiteSpace=wrap;html=1;" parent="1" vertex="1">
          <mxGeometry x="500" y="170" width="160" height="120" as="geometry" />
        </mxCell>
        <mxCell id="RCPrqhRZ-Z8AgEjsx5ML-8" value="- id INT (PK)&lt;br&gt;- name STRING&lt;br&gt;- resource_type INT (FK)&lt;br&gt;- institution INT (FK)" style="align=left;strokeColor=none;fillColor=none;spacingLeft=4;fontSize=12;verticalAlign=top;resizable=0;rotatable=0;part=1;html=1;" parent="RCPrqhRZ-Z8AgEjsx5ML-7" vertex="1">
          <mxGeometry y="30" width="160" height="90" as="geometry" />
        </mxCell>
        <mxCell id="RCPrqhRZ-Z8AgEjsx5ML-9" value="Clerk" style="swimlane;childLayout=stackLayout;horizontal=1;startSize=30;horizontalStack=0;rounded=1;fontSize=14;fontStyle=0;strokeWidth=2;resizeParent=0;resizeLast=1;shadow=0;dashed=0;align=center;arcSize=4;whiteSpace=wrap;html=1;" parent="1" vertex="1">
          <mxGeometry x="110" y="340" width="160" height="140" as="geometry">
            <mxRectangle x="110" y="340" width="70" height="30" as="alternateBounds" />
          </mxGeometry>
        </mxCell>
        <mxCell id="RCPrqhRZ-Z8AgEjsx5ML-10" value="- id INT (PK)&lt;br&gt;- name STRING&lt;br&gt;- surname STRING&lt;br&gt;- email STRING (UNQ)&lt;br&gt;- password STRING&lt;br&gt;- institution INT (FK)" style="align=left;strokeColor=none;fillColor=none;spacingLeft=4;fontSize=12;verticalAlign=top;resizable=0;rotatable=0;part=1;html=1;" parent="RCPrqhRZ-Z8AgEjsx5ML-9" vertex="1">
          <mxGeometry y="30" width="160" height="110" as="geometry" />
        </mxCell>
        <mxCell id="Vaiaw6FGciSA-SELHSKM-1" value="BookingResource" style="swimlane;childLayout=stackLayout;horizontal=1;startSize=30;horizontalStack=0;rounded=1;fontSize=14;fontStyle=0;strokeWidth=2;resizeParent=0;resizeLast=1;shadow=0;dashed=0;align=center;arcSize=4;whiteSpace=wrap;html=1;" parent="1" vertex="1">
          <mxGeometry x="500" y="340" width="160" height="140" as="geometry" />
        </mxCell>
        <mxCell id="Vaiaw6FGciSA-SELHSKM-2" value="- id INT (PK)&lt;br&gt;- resource INT (FK)&lt;br&gt;- booking INT (FK)" style="align=left;strokeColor=none;fillColor=none;spacingLeft=4;fontSize=12;verticalAlign=top;resizable=0;rotatable=0;part=1;html=1;" parent="Vaiaw6FGciSA-SELHSKM-1" vertex="1">
          <mxGeometry y="30" width="160" height="110" as="geometry" />
        </mxCell>
        <mxCell id="hOCXBwi8BTHVC35v02P5-1" value="Booking" style="swimlane;childLayout=stackLayout;horizontal=1;startSize=30;horizontalStack=0;rounded=1;fontSize=14;fontStyle=0;strokeWidth=2;resizeParent=0;resizeLast=1;shadow=0;dashed=0;align=center;arcSize=4;whiteSpace=wrap;html=1;" parent="1" vertex="1">
          <mxGeometry x="303" y="340" width="160" height="140" as="geometry" />
        </mxCell>
        <mxCell id="hOCXBwi8BTHVC35v02P5-2" value="- id INT (PK)&lt;br&gt;- booked_for INT (FK)&lt;br&gt;- booked_on INT (FK)&lt;br style=&quot;border-color: var(--border-color);&quot;&gt;- from DATETIME&lt;br style=&quot;border-color: var(--border-color);&quot;&gt;- to DATETIME" style="align=left;strokeColor=none;fillColor=none;spacingLeft=4;fontSize=12;verticalAlign=top;resizable=0;rotatable=0;part=1;html=1;" parent="hOCXBwi8BTHVC35v02P5-1" vertex="1">
          <mxGeometry y="30" width="160" height="110" as="geometry" />
        </mxCell>
      </root>
    </mxGraphModel>
  </diagram>
  <diagram id="MBjG3MmWxinMtiob3GOT" name="Admin Dashboard">
    <mxGraphModel dx="2133" dy="894" grid="1" gridSize="10" guides="0" tooltips="1" connect="1" arrows="1" fold="1" page="1" pageScale="1" pageWidth="827" pageHeight="1169" math="0" shadow="0">
      <root>
        <mxCell id="0" />
        <mxCell id="1" parent="0" />
        <mxCell id="O-eTRTDurwPqD4jkCw6P-1" value="" style="strokeWidth=1;shadow=0;dashed=0;align=center;html=1;shape=mxgraph.mockup.containers.browserWindow;rSize=0;strokeColor=#666666;strokeColor2=#008cff;strokeColor3=#c4c4c4;mainText=,;recursiveResize=0;" parent="1" vertex="1">
          <mxGeometry x="-10" y="160" width="1230" height="720" as="geometry" />
        </mxCell>
        <mxCell id="O-eTRTDurwPqD4jkCw6P-2" value="Dashboard" style="strokeWidth=1;shadow=0;dashed=0;align=center;html=1;shape=mxgraph.mockup.containers.anchor;fontSize=17;fontColor=#666666;align=left;whiteSpace=wrap;" parent="O-eTRTDurwPqD4jkCw6P-1" vertex="1">
          <mxGeometry x="60" y="12" width="110" height="26" as="geometry" />
        </mxCell>
        <mxCell id="O-eTRTDurwPqD4jkCw6P-3" value="https://www.draw.io" style="strokeWidth=1;shadow=0;dashed=0;align=center;html=1;shape=mxgraph.mockup.containers.anchor;rSize=0;fontSize=17;fontColor=#666666;align=left;" parent="O-eTRTDurwPqD4jkCw6P-1" vertex="1">
          <mxGeometry x="130" y="60" width="250" height="26" as="geometry" />
        </mxCell>
        <mxCell id="O-eTRTDurwPqD4jkCw6P-5" value="" style="verticalLabelPosition=bottom;shadow=0;dashed=0;align=center;html=1;verticalAlign=top;strokeWidth=1;shape=mxgraph.mockup.markup.line;strokeColor=#999999;direction=north;" parent="O-eTRTDurwPqD4jkCw6P-1" vertex="1">
          <mxGeometry x="110" y="110" width="20" height="610" as="geometry" />
        </mxCell>
        <mxCell id="O-eTRTDurwPqD4jkCw6P-6" value="" style="verticalLabelPosition=bottom;shadow=0;dashed=0;align=center;html=1;verticalAlign=top;strokeWidth=1;shape=mxgraph.mockup.markup.line;strokeColor=#999999;" parent="O-eTRTDurwPqD4jkCw6P-1" vertex="1">
          <mxGeometry y="150" width="120" height="20" as="geometry" />
        </mxCell>
        <mxCell id="O-eTRTDurwPqD4jkCw6P-7" value="Menu" style="text;html=1;strokeColor=none;fillColor=none;align=center;verticalAlign=middle;whiteSpace=wrap;rounded=0;fontSize=18;fontStyle=1" parent="O-eTRTDurwPqD4jkCw6P-1" vertex="1">
          <mxGeometry x="30" y="120" width="60" height="30" as="geometry" />
        </mxCell>
        <mxCell id="O-eTRTDurwPqD4jkCw6P-8" value="Institutions" style="text;html=1;strokeColor=none;fillColor=none;align=center;verticalAlign=middle;whiteSpace=wrap;rounded=0;" parent="O-eTRTDurwPqD4jkCw6P-1" vertex="1">
          <mxGeometry x="2" y="167" width="115" height="30" as="geometry" />
        </mxCell>
        <mxCell id="O-eTRTDurwPqD4jkCw6P-9" value="" style="verticalLabelPosition=bottom;shadow=0;dashed=0;align=center;html=1;verticalAlign=top;strokeWidth=1;shape=mxgraph.mockup.markup.line;strokeColor=#999999;" parent="O-eTRTDurwPqD4jkCw6P-1" vertex="1">
          <mxGeometry y="190" width="120" height="20" as="geometry" />
        </mxCell>
        <mxCell id="O-eTRTDurwPqD4jkCw6P-22" value="Admin dashboard" style="text;html=1;strokeColor=none;fillColor=none;align=left;verticalAlign=middle;whiteSpace=wrap;rounded=0;fontSize=29;fontStyle=1" parent="O-eTRTDurwPqD4jkCw6P-1" vertex="1">
          <mxGeometry x="142" y="120" width="258" height="30" as="geometry" />
        </mxCell>
        <mxCell id="O-eTRTDurwPqD4jkCw6P-24" value="Name" style="text;html=1;strokeColor=none;fillColor=none;align=center;verticalAlign=middle;whiteSpace=wrap;rounded=0;fontSize=15;fontStyle=1" parent="O-eTRTDurwPqD4jkCw6P-1" vertex="1">
          <mxGeometry x="140" y="167" width="60" height="30" as="geometry" />
        </mxCell>
        <mxCell id="bsjnBuU1UoCS4BMd9gnm-11" value="Email" style="text;html=1;strokeColor=none;fillColor=none;align=center;verticalAlign=middle;whiteSpace=wrap;rounded=0;fontSize=15;fontStyle=1" parent="O-eTRTDurwPqD4jkCw6P-1" vertex="1">
          <mxGeometry x="340" y="168" width="60" height="30" as="geometry" />
        </mxCell>
        <mxCell id="bsjnBuU1UoCS4BMd9gnm-12" value="Institution" style="text;html=1;strokeColor=none;fillColor=none;align=center;verticalAlign=middle;whiteSpace=wrap;rounded=0;fontSize=15;fontStyle=1" parent="O-eTRTDurwPqD4jkCw6P-1" vertex="1">
          <mxGeometry x="563" y="168" width="60" height="30" as="geometry" />
        </mxCell>
        <mxCell id="bsjnBuU1UoCS4BMd9gnm-13" value="" style="verticalLabelPosition=bottom;shadow=0;dashed=0;align=center;html=1;verticalAlign=top;strokeWidth=1;shape=mxgraph.mockup.markup.line;strokeColor=#999999;" parent="O-eTRTDurwPqD4jkCw6P-1" vertex="1">
          <mxGeometry x="120" y="191" width="1109" height="20" as="geometry" />
        </mxCell>
        <mxCell id="bsjnBuU1UoCS4BMd9gnm-14" value="" style="verticalLabelPosition=bottom;shadow=0;dashed=0;align=center;html=1;verticalAlign=top;strokeWidth=1;shape=mxgraph.mockup.markup.line;strokeColor=#999999;" parent="O-eTRTDurwPqD4jkCw6P-1" vertex="1">
          <mxGeometry x="120" y="228" width="1109" height="20" as="geometry" />
        </mxCell>
        <mxCell id="bsjnBuU1UoCS4BMd9gnm-15" value="Shingai Magazeni" style="text;html=1;strokeColor=none;fillColor=none;align=left;verticalAlign=middle;whiteSpace=wrap;rounded=0;" parent="O-eTRTDurwPqD4jkCw6P-1" vertex="1">
          <mxGeometry x="146" y="202" width="110" height="30" as="geometry" />
        </mxCell>
        <mxCell id="bsjnBuU1UoCS4BMd9gnm-16" value="shingaimaggie@gmail.com" style="text;html=1;strokeColor=none;fillColor=none;align=left;verticalAlign=middle;whiteSpace=wrap;rounded=0;" parent="O-eTRTDurwPqD4jkCw6P-1" vertex="1">
          <mxGeometry x="348" y="202" width="110" height="30" as="geometry" />
        </mxCell>
        <mxCell id="bsjnBuU1UoCS4BMd9gnm-17" value="Mpilo" style="text;html=1;strokeColor=none;fillColor=none;align=left;verticalAlign=middle;whiteSpace=wrap;rounded=0;" parent="O-eTRTDurwPqD4jkCw6P-1" vertex="1">
          <mxGeometry x="554" y="202" width="110" height="30" as="geometry" />
        </mxCell>
        <mxCell id="bsjnBuU1UoCS4BMd9gnm-18" value="" style="html=1;verticalLabelPosition=bottom;labelBackgroundColor=#ffffff;verticalAlign=top;shadow=0;dashed=0;strokeWidth=2;shape=mxgraph.ios7.misc.delete;fillColor=#ff0000;strokeColor=#ffffff;sketch=0;" parent="O-eTRTDurwPqD4jkCw6P-1" vertex="1">
          <mxGeometry x="720" y="212" width="17" height="16" as="geometry" />
        </mxCell>
        <mxCell id="bsjnBuU1UoCS4BMd9gnm-19" value="" style="html=1;verticalLabelPosition=bottom;align=center;labelBackgroundColor=#ffffff;verticalAlign=top;strokeWidth=2;strokeColor=#0080F0;shadow=0;dashed=0;shape=mxgraph.ios7.icons.add;" parent="O-eTRTDurwPqD4jkCw6P-1" vertex="1">
          <mxGeometry x="1175" y="668" width="30" height="30" as="geometry" />
        </mxCell>
        <mxCell id="bsjnBuU1UoCS4BMd9gnm-21" value="&lt;font color=&quot;#828282&quot;&gt;Clerks&lt;/font&gt;" style="text;html=1;strokeColor=none;fillColor=none;align=left;verticalAlign=middle;whiteSpace=wrap;rounded=0;fontSize=29;fontStyle=1" parent="O-eTRTDurwPqD4jkCw6P-1" vertex="1">
          <mxGeometry x="471" y="121" width="258" height="30" as="geometry" />
        </mxCell>
        <mxCell id="bsjnBuU1UoCS4BMd9gnm-22" value="" style="shape=mxgraph.arrows.chevron_arrow;html=1;verticalLabelPosition=bottom;verticalAlign=top;strokeWidth=2;strokeColor=#828282;" parent="O-eTRTDurwPqD4jkCw6P-1" vertex="1">
          <mxGeometry x="408" y="121" width="50" height="30" as="geometry" />
        </mxCell>
        <mxCell id="O-eTRTDurwPqD4jkCw6P-10" value="Clerks" style="text;html=1;strokeColor=none;fillColor=none;align=center;verticalAlign=middle;whiteSpace=wrap;rounded=0;" parent="1" vertex="1">
          <mxGeometry x="-7" y="364" width="114" height="30" as="geometry" />
        </mxCell>
        <mxCell id="O-eTRTDurwPqD4jkCw6P-11" value="" style="verticalLabelPosition=bottom;shadow=0;dashed=0;align=center;html=1;verticalAlign=top;strokeWidth=1;shape=mxgraph.mockup.markup.line;strokeColor=#999999;" parent="1" vertex="1">
          <mxGeometry x="-9" y="387" width="120" height="20" as="geometry" />
        </mxCell>
        <mxCell id="O-eTRTDurwPqD4jkCw6P-12" value="Resource types" style="text;html=1;strokeColor=none;fillColor=none;align=center;verticalAlign=middle;whiteSpace=wrap;rounded=0;" parent="1" vertex="1">
          <mxGeometry x="-8" y="401" width="116" height="30" as="geometry" />
        </mxCell>
        <mxCell id="O-eTRTDurwPqD4jkCw6P-13" value="" style="verticalLabelPosition=bottom;shadow=0;dashed=0;align=center;html=1;verticalAlign=top;strokeWidth=1;shape=mxgraph.mockup.markup.line;strokeColor=#999999;" parent="1" vertex="1">
          <mxGeometry x="-11" y="424" width="120" height="20" as="geometry" />
        </mxCell>
        <mxCell id="O-eTRTDurwPqD4jkCw6P-23" value="" style="verticalLabelPosition=bottom;shadow=0;dashed=0;align=center;html=1;verticalAlign=top;strokeWidth=1;shape=mxgraph.mockup.markup.line;strokeColor=#999999;" parent="1" vertex="1">
          <mxGeometry x="111" y="310" width="1109" height="20" as="geometry" />
        </mxCell>
        <mxCell id="bsjnBuU1UoCS4BMd9gnm-49" value="" style="strokeWidth=1;shadow=0;dashed=0;align=left;html=1;shape=mxgraph.mockup.containers.browserWindow;rSize=0;strokeColor=#666666;strokeColor2=#008cff;strokeColor3=#c4c4c4;mainText=,;recursiveResize=0;" parent="1" vertex="1">
          <mxGeometry x="-9" y="930" width="1230" height="720" as="geometry" />
        </mxCell>
        <mxCell id="bsjnBuU1UoCS4BMd9gnm-50" value="Dashboard" style="strokeWidth=1;shadow=0;dashed=0;align=center;html=1;shape=mxgraph.mockup.containers.anchor;fontSize=17;fontColor=#666666;align=left;whiteSpace=wrap;" parent="bsjnBuU1UoCS4BMd9gnm-49" vertex="1">
          <mxGeometry x="60" y="12" width="110" height="26" as="geometry" />
        </mxCell>
        <mxCell id="bsjnBuU1UoCS4BMd9gnm-51" value="https://www.draw.io" style="strokeWidth=1;shadow=0;dashed=0;align=center;html=1;shape=mxgraph.mockup.containers.anchor;rSize=0;fontSize=17;fontColor=#666666;align=left;" parent="bsjnBuU1UoCS4BMd9gnm-49" vertex="1">
          <mxGeometry x="130" y="60" width="250" height="26" as="geometry" />
        </mxCell>
        <mxCell id="bsjnBuU1UoCS4BMd9gnm-52" value="" style="verticalLabelPosition=bottom;shadow=0;dashed=0;align=center;html=1;verticalAlign=top;strokeWidth=1;shape=mxgraph.mockup.markup.line;strokeColor=#999999;direction=north;" parent="bsjnBuU1UoCS4BMd9gnm-49" vertex="1">
          <mxGeometry x="110" y="110" width="20" height="610" as="geometry" />
        </mxCell>
        <mxCell id="bsjnBuU1UoCS4BMd9gnm-53" value="" style="verticalLabelPosition=bottom;shadow=0;dashed=0;align=center;html=1;verticalAlign=top;strokeWidth=1;shape=mxgraph.mockup.markup.line;strokeColor=#999999;" parent="bsjnBuU1UoCS4BMd9gnm-49" vertex="1">
          <mxGeometry y="150" width="120" height="20" as="geometry" />
        </mxCell>
        <mxCell id="bsjnBuU1UoCS4BMd9gnm-54" value="Menu" style="text;html=1;strokeColor=none;fillColor=none;align=center;verticalAlign=middle;whiteSpace=wrap;rounded=0;fontSize=18;fontStyle=1" parent="bsjnBuU1UoCS4BMd9gnm-49" vertex="1">
          <mxGeometry x="30" y="120" width="60" height="30" as="geometry" />
        </mxCell>
        <mxCell id="bsjnBuU1UoCS4BMd9gnm-55" value="Institutions" style="text;html=1;strokeColor=none;fillColor=none;align=center;verticalAlign=middle;whiteSpace=wrap;rounded=0;" parent="bsjnBuU1UoCS4BMd9gnm-49" vertex="1">
          <mxGeometry x="2" y="167" width="115" height="30" as="geometry" />
        </mxCell>
        <mxCell id="bsjnBuU1UoCS4BMd9gnm-56" value="" style="verticalLabelPosition=bottom;shadow=0;dashed=0;align=center;html=1;verticalAlign=top;strokeWidth=1;shape=mxgraph.mockup.markup.line;strokeColor=#999999;" parent="bsjnBuU1UoCS4BMd9gnm-49" vertex="1">
          <mxGeometry y="190" width="120" height="20" as="geometry" />
        </mxCell>
        <mxCell id="bsjnBuU1UoCS4BMd9gnm-57" value="Admin dashboard" style="text;html=1;strokeColor=none;fillColor=none;align=left;verticalAlign=middle;whiteSpace=wrap;rounded=0;fontSize=29;fontStyle=1" parent="bsjnBuU1UoCS4BMd9gnm-49" vertex="1">
          <mxGeometry x="142" y="120" width="258" height="30" as="geometry" />
        </mxCell>
        <mxCell id="bsjnBuU1UoCS4BMd9gnm-67" value="" style="html=1;verticalLabelPosition=bottom;align=center;labelBackgroundColor=#ffffff;verticalAlign=top;strokeWidth=2;strokeColor=#0080F0;shadow=0;dashed=0;shape=mxgraph.ios7.icons.add;" parent="bsjnBuU1UoCS4BMd9gnm-49" vertex="1">
          <mxGeometry x="1175" y="668" width="30" height="30" as="geometry" />
        </mxCell>
        <mxCell id="bsjnBuU1UoCS4BMd9gnm-68" value="&lt;font color=&quot;#828282&quot;&gt;Institutions&lt;/font&gt;" style="text;html=1;strokeColor=none;fillColor=none;align=left;verticalAlign=middle;whiteSpace=wrap;rounded=0;fontSize=29;fontStyle=1" parent="bsjnBuU1UoCS4BMd9gnm-49" vertex="1">
          <mxGeometry x="471" y="121" width="258" height="30" as="geometry" />
        </mxCell>
        <mxCell id="bsjnBuU1UoCS4BMd9gnm-69" value="" style="shape=mxgraph.arrows.chevron_arrow;html=1;verticalLabelPosition=bottom;verticalAlign=top;strokeWidth=2;strokeColor=#828282;" parent="bsjnBuU1UoCS4BMd9gnm-49" vertex="1">
          <mxGeometry x="408" y="121" width="50" height="30" as="geometry" />
        </mxCell>
        <mxCell id="p0o3-ZixKJ1B0mup296--1" value="Mpilo Hospital" style="dashed=0;html=1;fillColor=#F0F2F5;strokeColor=none;align=left;rounded=1;arcSize=10;fontColor=#3384FF;fontStyle=1;fontSize=14;shadow=0;spacingLeft=3;glass=0;" parent="bsjnBuU1UoCS4BMd9gnm-49" vertex="1">
          <mxGeometry x="142" y="180" width="148" height="40" as="geometry" />
        </mxCell>
        <mxCell id="p0o3-ZixKJ1B0mup296--2" value="" style="html=1;shadow=0;dashed=0;shape=mxgraph.atlassian.x;strokeColor=#596780;strokeWidth=2" parent="p0o3-ZixKJ1B0mup296--1" vertex="1">
          <mxGeometry x="1" y="0.5" width="6" height="6" relative="1" as="geometry">
            <mxPoint x="-11" y="-3" as="offset" />
          </mxGeometry>
        </mxCell>
        <mxCell id="p0o3-ZixKJ1B0mup296--3" value="Parirenyatwa" style="dashed=0;html=1;fillColor=#F0F2F5;strokeColor=none;align=left;rounded=1;arcSize=10;fontColor=#3384FF;fontStyle=1;fontSize=14;shadow=0;spacingLeft=3;glass=0;" parent="bsjnBuU1UoCS4BMd9gnm-49" vertex="1">
          <mxGeometry x="319" y="180" width="148" height="40" as="geometry" />
        </mxCell>
        <mxCell id="p0o3-ZixKJ1B0mup296--4" value="" style="html=1;shadow=0;dashed=0;shape=mxgraph.atlassian.x;strokeColor=#596780;strokeWidth=2" parent="p0o3-ZixKJ1B0mup296--3" vertex="1">
          <mxGeometry x="1" y="0.5" width="6" height="6" relative="1" as="geometry">
            <mxPoint x="-11" y="-3" as="offset" />
          </mxGeometry>
        </mxCell>
        <mxCell id="bsjnBuU1UoCS4BMd9gnm-70" value="Clerks" style="text;html=1;strokeColor=none;fillColor=none;align=center;verticalAlign=middle;whiteSpace=wrap;rounded=0;" parent="1" vertex="1">
          <mxGeometry x="-6" y="1134" width="114" height="30" as="geometry" />
        </mxCell>
        <mxCell id="bsjnBuU1UoCS4BMd9gnm-71" value="" style="verticalLabelPosition=bottom;shadow=0;dashed=0;align=center;html=1;verticalAlign=top;strokeWidth=1;shape=mxgraph.mockup.markup.line;strokeColor=#999999;" parent="1" vertex="1">
          <mxGeometry x="-8" y="1157" width="120" height="20" as="geometry" />
        </mxCell>
        <mxCell id="bsjnBuU1UoCS4BMd9gnm-72" value="Resource types" style="text;html=1;strokeColor=none;fillColor=none;align=center;verticalAlign=middle;whiteSpace=wrap;rounded=0;" parent="1" vertex="1">
          <mxGeometry x="-7" y="1171" width="116" height="30" as="geometry" />
        </mxCell>
        <mxCell id="bsjnBuU1UoCS4BMd9gnm-73" value="" style="verticalLabelPosition=bottom;shadow=0;dashed=0;align=center;html=1;verticalAlign=top;strokeWidth=1;shape=mxgraph.mockup.markup.line;strokeColor=#999999;" parent="1" vertex="1">
          <mxGeometry x="-10" y="1194" width="120" height="20" as="geometry" />
        </mxCell>
        <mxCell id="bsjnBuU1UoCS4BMd9gnm-74" value="" style="verticalLabelPosition=bottom;shadow=0;dashed=0;align=center;html=1;verticalAlign=top;strokeWidth=1;shape=mxgraph.mockup.markup.line;strokeColor=#999999;" parent="1" vertex="1">
          <mxGeometry x="112" y="1080" width="1109" height="20" as="geometry" />
        </mxCell>
        <mxCell id="p0o3-ZixKJ1B0mup296--5" value="" style="strokeWidth=1;shadow=0;dashed=0;align=left;html=1;shape=mxgraph.mockup.containers.browserWindow;rSize=0;strokeColor=#666666;strokeColor2=#008cff;strokeColor3=#c4c4c4;mainText=,;recursiveResize=0;" parent="1" vertex="1">
          <mxGeometry x="-9" y="1710" width="1230" height="720" as="geometry" />
        </mxCell>
        <mxCell id="p0o3-ZixKJ1B0mup296--6" value="Dashboard" style="strokeWidth=1;shadow=0;dashed=0;align=center;html=1;shape=mxgraph.mockup.containers.anchor;fontSize=17;fontColor=#666666;align=left;whiteSpace=wrap;" parent="p0o3-ZixKJ1B0mup296--5" vertex="1">
          <mxGeometry x="60" y="12" width="110" height="26" as="geometry" />
        </mxCell>
        <mxCell id="p0o3-ZixKJ1B0mup296--7" value="https://www.draw.io" style="strokeWidth=1;shadow=0;dashed=0;align=center;html=1;shape=mxgraph.mockup.containers.anchor;rSize=0;fontSize=17;fontColor=#666666;align=left;" parent="p0o3-ZixKJ1B0mup296--5" vertex="1">
          <mxGeometry x="130" y="60" width="250" height="26" as="geometry" />
        </mxCell>
        <mxCell id="p0o3-ZixKJ1B0mup296--8" value="" style="verticalLabelPosition=bottom;shadow=0;dashed=0;align=center;html=1;verticalAlign=top;strokeWidth=1;shape=mxgraph.mockup.markup.line;strokeColor=#999999;direction=north;" parent="p0o3-ZixKJ1B0mup296--5" vertex="1">
          <mxGeometry x="110" y="110" width="20" height="610" as="geometry" />
        </mxCell>
        <mxCell id="p0o3-ZixKJ1B0mup296--9" value="" style="verticalLabelPosition=bottom;shadow=0;dashed=0;align=center;html=1;verticalAlign=top;strokeWidth=1;shape=mxgraph.mockup.markup.line;strokeColor=#999999;" parent="p0o3-ZixKJ1B0mup296--5" vertex="1">
          <mxGeometry y="150" width="120" height="20" as="geometry" />
        </mxCell>
        <mxCell id="p0o3-ZixKJ1B0mup296--10" value="Menu" style="text;html=1;strokeColor=none;fillColor=none;align=center;verticalAlign=middle;whiteSpace=wrap;rounded=0;fontSize=18;fontStyle=1" parent="p0o3-ZixKJ1B0mup296--5" vertex="1">
          <mxGeometry x="30" y="120" width="60" height="30" as="geometry" />
        </mxCell>
        <mxCell id="p0o3-ZixKJ1B0mup296--11" value="Institutions" style="text;html=1;strokeColor=none;fillColor=none;align=center;verticalAlign=middle;whiteSpace=wrap;rounded=0;" parent="p0o3-ZixKJ1B0mup296--5" vertex="1">
          <mxGeometry x="2" y="167" width="115" height="30" as="geometry" />
        </mxCell>
        <mxCell id="p0o3-ZixKJ1B0mup296--12" value="" style="verticalLabelPosition=bottom;shadow=0;dashed=0;align=center;html=1;verticalAlign=top;strokeWidth=1;shape=mxgraph.mockup.markup.line;strokeColor=#999999;" parent="p0o3-ZixKJ1B0mup296--5" vertex="1">
          <mxGeometry y="190" width="120" height="20" as="geometry" />
        </mxCell>
        <mxCell id="p0o3-ZixKJ1B0mup296--13" value="Admin dashboard" style="text;html=1;strokeColor=none;fillColor=none;align=left;verticalAlign=middle;whiteSpace=wrap;rounded=0;fontSize=29;fontStyle=1" parent="p0o3-ZixKJ1B0mup296--5" vertex="1">
          <mxGeometry x="142" y="120" width="258" height="30" as="geometry" />
        </mxCell>
        <mxCell id="p0o3-ZixKJ1B0mup296--14" value="" style="html=1;verticalLabelPosition=bottom;align=center;labelBackgroundColor=#ffffff;verticalAlign=top;strokeWidth=2;strokeColor=#0080F0;shadow=0;dashed=0;shape=mxgraph.ios7.icons.add;" parent="p0o3-ZixKJ1B0mup296--5" vertex="1">
          <mxGeometry x="1175" y="668" width="30" height="30" as="geometry" />
        </mxCell>
        <mxCell id="p0o3-ZixKJ1B0mup296--15" value="&lt;font color=&quot;#828282&quot;&gt;Resource Types&lt;/font&gt;" style="text;html=1;strokeColor=none;fillColor=none;align=left;verticalAlign=middle;whiteSpace=wrap;rounded=0;fontSize=29;fontStyle=1" parent="p0o3-ZixKJ1B0mup296--5" vertex="1">
          <mxGeometry x="471" y="121" width="258" height="30" as="geometry" />
        </mxCell>
        <mxCell id="p0o3-ZixKJ1B0mup296--16" value="" style="shape=mxgraph.arrows.chevron_arrow;html=1;verticalLabelPosition=bottom;verticalAlign=top;strokeWidth=2;strokeColor=#828282;" parent="p0o3-ZixKJ1B0mup296--5" vertex="1">
          <mxGeometry x="408" y="121" width="50" height="30" as="geometry" />
        </mxCell>
        <mxCell id="p0o3-ZixKJ1B0mup296--17" value="Paedaetrician" style="dashed=0;html=1;fillColor=#F0F2F5;strokeColor=none;align=left;rounded=1;arcSize=10;fontColor=#3384FF;fontStyle=1;fontSize=14;shadow=0;spacingLeft=3;glass=0;" parent="p0o3-ZixKJ1B0mup296--5" vertex="1">
          <mxGeometry x="142" y="180" width="148" height="40" as="geometry" />
        </mxCell>
        <mxCell id="p0o3-ZixKJ1B0mup296--18" value="" style="html=1;shadow=0;dashed=0;shape=mxgraph.atlassian.x;strokeColor=#596780;strokeWidth=2" parent="p0o3-ZixKJ1B0mup296--17" vertex="1">
          <mxGeometry x="1" y="0.5" width="6" height="6" relative="1" as="geometry">
            <mxPoint x="-11" y="-3" as="offset" />
          </mxGeometry>
        </mxCell>
        <mxCell id="p0o3-ZixKJ1B0mup296--19" value="X-Ray Machine" style="dashed=0;html=1;fillColor=#F0F2F5;strokeColor=none;align=left;rounded=1;arcSize=10;fontColor=#3384FF;fontStyle=1;fontSize=14;shadow=0;spacingLeft=3;glass=0;" parent="p0o3-ZixKJ1B0mup296--5" vertex="1">
          <mxGeometry x="319" y="180" width="148" height="40" as="geometry" />
        </mxCell>
        <mxCell id="p0o3-ZixKJ1B0mup296--20" value="" style="html=1;shadow=0;dashed=0;shape=mxgraph.atlassian.x;strokeColor=#596780;strokeWidth=2" parent="p0o3-ZixKJ1B0mup296--19" vertex="1">
          <mxGeometry x="1" y="0.5" width="6" height="6" relative="1" as="geometry">
            <mxPoint x="-11" y="-3" as="offset" />
          </mxGeometry>
        </mxCell>
        <mxCell id="p0o3-ZixKJ1B0mup296--21" value="Clerks" style="text;html=1;strokeColor=none;fillColor=none;align=center;verticalAlign=middle;whiteSpace=wrap;rounded=0;" parent="1" vertex="1">
          <mxGeometry x="-6" y="1914" width="114" height="30" as="geometry" />
        </mxCell>
        <mxCell id="p0o3-ZixKJ1B0mup296--22" value="" style="verticalLabelPosition=bottom;shadow=0;dashed=0;align=center;html=1;verticalAlign=top;strokeWidth=1;shape=mxgraph.mockup.markup.line;strokeColor=#999999;" parent="1" vertex="1">
          <mxGeometry x="-8" y="1937" width="120" height="20" as="geometry" />
        </mxCell>
        <mxCell id="p0o3-ZixKJ1B0mup296--23" value="Resource types" style="text;html=1;strokeColor=none;fillColor=none;align=center;verticalAlign=middle;whiteSpace=wrap;rounded=0;" parent="1" vertex="1">
          <mxGeometry x="-7" y="1951" width="116" height="30" as="geometry" />
        </mxCell>
        <mxCell id="p0o3-ZixKJ1B0mup296--24" value="" style="verticalLabelPosition=bottom;shadow=0;dashed=0;align=center;html=1;verticalAlign=top;strokeWidth=1;shape=mxgraph.mockup.markup.line;strokeColor=#999999;" parent="1" vertex="1">
          <mxGeometry x="-10" y="1974" width="120" height="20" as="geometry" />
        </mxCell>
        <mxCell id="p0o3-ZixKJ1B0mup296--25" value="" style="verticalLabelPosition=bottom;shadow=0;dashed=0;align=center;html=1;verticalAlign=top;strokeWidth=1;shape=mxgraph.mockup.markup.line;strokeColor=#999999;" parent="1" vertex="1">
          <mxGeometry x="112" y="1860" width="1109" height="20" as="geometry" />
        </mxCell>
      </root>
    </mxGraphModel>
  </diagram>
  <diagram id="QdLwQJ0Hmmd47X8pacXi" name="Clerk dashboard">
    <mxGraphModel dx="1306" dy="894" grid="1" gridSize="10" guides="1" tooltips="1" connect="1" arrows="1" fold="1" page="1" pageScale="1" pageWidth="827" pageHeight="1169" math="0" shadow="0">
      <root>
        <mxCell id="0" />
        <mxCell id="1" parent="0" />
        <mxCell id="M4iSmOv2p4JiEZuP580J-27" value="" style="strokeWidth=1;shadow=0;dashed=0;align=center;html=1;shape=mxgraph.mockup.containers.browserWindow;rSize=0;strokeColor=#666666;strokeColor2=#008cff;strokeColor3=#c4c4c4;mainText=,;recursiveResize=0;" parent="1" vertex="1">
          <mxGeometry x="111" y="110" width="1230" height="720" as="geometry" />
        </mxCell>
        <mxCell id="M4iSmOv2p4JiEZuP580J-28" value="Dashboard" style="strokeWidth=1;shadow=0;dashed=0;align=center;html=1;shape=mxgraph.mockup.containers.anchor;fontSize=17;fontColor=#666666;align=left;whiteSpace=wrap;" parent="M4iSmOv2p4JiEZuP580J-27" vertex="1">
          <mxGeometry x="60" y="12" width="110" height="26" as="geometry" />
        </mxCell>
        <mxCell id="M4iSmOv2p4JiEZuP580J-29" value="https://www.draw.io" style="strokeWidth=1;shadow=0;dashed=0;align=center;html=1;shape=mxgraph.mockup.containers.anchor;rSize=0;fontSize=17;fontColor=#666666;align=left;" parent="M4iSmOv2p4JiEZuP580J-27" vertex="1">
          <mxGeometry x="130" y="60" width="250" height="26" as="geometry" />
        </mxCell>
        <mxCell id="M4iSmOv2p4JiEZuP580J-30" value="" style="verticalLabelPosition=bottom;shadow=0;dashed=0;align=center;html=1;verticalAlign=top;strokeWidth=1;shape=mxgraph.mockup.markup.line;strokeColor=#999999;direction=north;" parent="M4iSmOv2p4JiEZuP580J-27" vertex="1">
          <mxGeometry x="110" y="110" width="20" height="610" as="geometry" />
        </mxCell>
        <mxCell id="M4iSmOv2p4JiEZuP580J-31" value="" style="verticalLabelPosition=bottom;shadow=0;dashed=0;align=center;html=1;verticalAlign=top;strokeWidth=1;shape=mxgraph.mockup.markup.line;strokeColor=#999999;" parent="M4iSmOv2p4JiEZuP580J-27" vertex="1">
          <mxGeometry y="150" width="120" height="20" as="geometry" />
        </mxCell>
        <mxCell id="M4iSmOv2p4JiEZuP580J-32" value="Menu" style="text;html=1;strokeColor=none;fillColor=none;align=center;verticalAlign=middle;whiteSpace=wrap;rounded=0;fontSize=18;fontStyle=1" parent="M4iSmOv2p4JiEZuP580J-27" vertex="1">
          <mxGeometry x="30" y="120" width="60" height="30" as="geometry" />
        </mxCell>
        <mxCell id="M4iSmOv2p4JiEZuP580J-33" value="Resources" style="text;html=1;strokeColor=none;fillColor=none;align=center;verticalAlign=middle;whiteSpace=wrap;rounded=0;" parent="M4iSmOv2p4JiEZuP580J-27" vertex="1">
          <mxGeometry x="2" y="167" width="115" height="30" as="geometry" />
        </mxCell>
        <mxCell id="M4iSmOv2p4JiEZuP580J-34" value="" style="verticalLabelPosition=bottom;shadow=0;dashed=0;align=center;html=1;verticalAlign=top;strokeWidth=1;shape=mxgraph.mockup.markup.line;strokeColor=#999999;" parent="M4iSmOv2p4JiEZuP580J-27" vertex="1">
          <mxGeometry y="190" width="120" height="20" as="geometry" />
        </mxCell>
        <mxCell id="M4iSmOv2p4JiEZuP580J-35" value="Clerk dashboard" style="text;html=1;strokeColor=none;fillColor=none;align=left;verticalAlign=middle;whiteSpace=wrap;rounded=0;fontSize=29;fontStyle=1" parent="M4iSmOv2p4JiEZuP580J-27" vertex="1">
          <mxGeometry x="142" y="120" width="258" height="30" as="geometry" />
        </mxCell>
        <mxCell id="M4iSmOv2p4JiEZuP580J-36" value="Name" style="text;html=1;strokeColor=none;fillColor=none;align=left;verticalAlign=middle;whiteSpace=wrap;rounded=0;fontSize=15;fontStyle=1" parent="M4iSmOv2p4JiEZuP580J-27" vertex="1">
          <mxGeometry x="144" y="167" width="60" height="30" as="geometry" />
        </mxCell>
        <mxCell id="M4iSmOv2p4JiEZuP580J-37" value="Type" style="text;html=1;strokeColor=none;fillColor=none;align=left;verticalAlign=middle;whiteSpace=wrap;rounded=0;fontSize=15;fontStyle=1" parent="M4iSmOv2p4JiEZuP580J-27" vertex="1">
          <mxGeometry x="346" y="168" width="60" height="30" as="geometry" />
        </mxCell>
        <mxCell id="M4iSmOv2p4JiEZuP580J-39" value="" style="verticalLabelPosition=bottom;shadow=0;dashed=0;align=center;html=1;verticalAlign=top;strokeWidth=1;shape=mxgraph.mockup.markup.line;strokeColor=#999999;" parent="M4iSmOv2p4JiEZuP580J-27" vertex="1">
          <mxGeometry x="120" y="191" width="1109" height="20" as="geometry" />
        </mxCell>
        <mxCell id="M4iSmOv2p4JiEZuP580J-40" value="" style="verticalLabelPosition=bottom;shadow=0;dashed=0;align=center;html=1;verticalAlign=top;strokeWidth=1;shape=mxgraph.mockup.markup.line;strokeColor=#999999;" parent="M4iSmOv2p4JiEZuP580J-27" vertex="1">
          <mxGeometry x="120" y="228" width="1109" height="20" as="geometry" />
        </mxCell>
        <mxCell id="M4iSmOv2p4JiEZuP580J-41" value="X-Ray 1" style="text;html=1;strokeColor=none;fillColor=none;align=left;verticalAlign=middle;whiteSpace=wrap;rounded=0;" parent="M4iSmOv2p4JiEZuP580J-27" vertex="1">
          <mxGeometry x="146" y="202" width="110" height="30" as="geometry" />
        </mxCell>
        <mxCell id="M4iSmOv2p4JiEZuP580J-44" value="" style="html=1;verticalLabelPosition=bottom;labelBackgroundColor=#ffffff;verticalAlign=top;shadow=0;dashed=0;strokeWidth=2;shape=mxgraph.ios7.misc.delete;fillColor=#ff0000;strokeColor=#ffffff;sketch=0;" parent="M4iSmOv2p4JiEZuP580J-27" vertex="1">
          <mxGeometry x="583" y="212" width="17" height="16" as="geometry" />
        </mxCell>
        <mxCell id="M4iSmOv2p4JiEZuP580J-45" value="" style="html=1;verticalLabelPosition=bottom;align=center;labelBackgroundColor=#ffffff;verticalAlign=top;strokeWidth=2;strokeColor=#0080F0;shadow=0;dashed=0;shape=mxgraph.ios7.icons.add;" parent="M4iSmOv2p4JiEZuP580J-27" vertex="1">
          <mxGeometry x="1175" y="668" width="30" height="30" as="geometry" />
        </mxCell>
        <mxCell id="M4iSmOv2p4JiEZuP580J-46" value="&lt;font color=&quot;#828282&quot;&gt;Resources&lt;/font&gt;" style="text;html=1;strokeColor=none;fillColor=none;align=left;verticalAlign=middle;whiteSpace=wrap;rounded=0;fontSize=29;fontStyle=1" parent="M4iSmOv2p4JiEZuP580J-27" vertex="1">
          <mxGeometry x="471" y="121" width="258" height="30" as="geometry" />
        </mxCell>
        <mxCell id="M4iSmOv2p4JiEZuP580J-47" value="" style="shape=mxgraph.arrows.chevron_arrow;html=1;verticalLabelPosition=bottom;verticalAlign=top;strokeWidth=2;strokeColor=#828282;" parent="M4iSmOv2p4JiEZuP580J-27" vertex="1">
          <mxGeometry x="408" y="121" width="50" height="30" as="geometry" />
        </mxCell>
        <mxCell id="M4iSmOv2p4JiEZuP580J-53" value="X-Ray Machine" style="dashed=0;html=1;fillColor=#F0F2F5;strokeColor=none;align=center;rounded=1;arcSize=10;fontColor=#596780;fontStyle=1;fontSize=11;shadow=0" parent="M4iSmOv2p4JiEZuP580J-27" vertex="1">
          <mxGeometry x="345" y="212" width="84" height="20" as="geometry" />
        </mxCell>
        <mxCell id="M4iSmOv2p4JiEZuP580J-54" value="Book resources" style="rounded=1;fillColor=#0057D8;strokeColor=none;html=1;whiteSpace=wrap;fontColor=#ffffff;align=center;verticalAlign=middle;fontStyle=0;fontSize=12;sketch=0;" parent="M4iSmOv2p4JiEZuP580J-27" vertex="1">
          <mxGeometry x="7" y="260" width="110" height="33" as="geometry" />
        </mxCell>
        <mxCell id="M4iSmOv2p4JiEZuP580J-57" value="" style="html=1;verticalLabelPosition=bottom;labelBackgroundColor=#ffffff;verticalAlign=top;shadow=0;dashed=0;strokeWidth=2;shape=mxgraph.ios7.misc.left;strokeColor=#0080f0;fontSize=32;" parent="M4iSmOv2p4JiEZuP580J-27" vertex="1">
          <mxGeometry x="16" y="678" width="10" height="20" as="geometry" />
        </mxCell>
        <mxCell id="M4iSmOv2p4JiEZuP580J-58" value="LOGOUT" style="html=1;shadow=0;dashed=0;shape=mxgraph.bootstrap.rrect;rSize=5;strokeColor=none;strokeWidth=1;fillColor=none;fontColor=#0085FC;whiteSpace=wrap;align=center;verticalAlign=middle;spacingLeft=0;fontStyle=0;fontSize=16;spacing=5;" parent="M4iSmOv2p4JiEZuP580J-27" vertex="1">
          <mxGeometry x="39" y="668" width="60" height="40" as="geometry" />
        </mxCell>
        <mxCell id="M4iSmOv2p4JiEZuP580J-48" value="Bookings" style="text;html=1;strokeColor=none;fillColor=none;align=center;verticalAlign=middle;whiteSpace=wrap;rounded=0;" parent="1" vertex="1">
          <mxGeometry x="114" y="314" width="114" height="30" as="geometry" />
        </mxCell>
        <mxCell id="M4iSmOv2p4JiEZuP580J-49" value="" style="verticalLabelPosition=bottom;shadow=0;dashed=0;align=center;html=1;verticalAlign=top;strokeWidth=1;shape=mxgraph.mockup.markup.line;strokeColor=#999999;" parent="1" vertex="1">
          <mxGeometry x="112" y="337" width="120" height="20" as="geometry" />
        </mxCell>
        <mxCell id="M4iSmOv2p4JiEZuP580J-52" value="" style="verticalLabelPosition=bottom;shadow=0;dashed=0;align=center;html=1;verticalAlign=top;strokeWidth=1;shape=mxgraph.mockup.markup.line;strokeColor=#999999;" parent="1" vertex="1">
          <mxGeometry x="232" y="260" width="1109" height="20" as="geometry" />
        </mxCell>
        <mxCell id="M4iSmOv2p4JiEZuP580J-59" value="" style="strokeWidth=1;shadow=0;dashed=0;align=center;html=1;shape=mxgraph.mockup.containers.browserWindow;rSize=0;strokeColor=#666666;strokeColor2=#008cff;strokeColor3=#c4c4c4;mainText=,;recursiveResize=0;" parent="1" vertex="1">
          <mxGeometry x="110" y="900" width="1230" height="720" as="geometry" />
        </mxCell>
        <mxCell id="M4iSmOv2p4JiEZuP580J-60" value="Dashboard" style="strokeWidth=1;shadow=0;dashed=0;align=center;html=1;shape=mxgraph.mockup.containers.anchor;fontSize=17;fontColor=#666666;align=left;whiteSpace=wrap;" parent="M4iSmOv2p4JiEZuP580J-59" vertex="1">
          <mxGeometry x="60" y="12" width="110" height="26" as="geometry" />
        </mxCell>
        <mxCell id="M4iSmOv2p4JiEZuP580J-61" value="https://www.draw.io" style="strokeWidth=1;shadow=0;dashed=0;align=center;html=1;shape=mxgraph.mockup.containers.anchor;rSize=0;fontSize=17;fontColor=#666666;align=left;" parent="M4iSmOv2p4JiEZuP580J-59" vertex="1">
          <mxGeometry x="130" y="60" width="250" height="26" as="geometry" />
        </mxCell>
        <mxCell id="M4iSmOv2p4JiEZuP580J-62" value="" style="verticalLabelPosition=bottom;shadow=0;dashed=0;align=center;html=1;verticalAlign=top;strokeWidth=1;shape=mxgraph.mockup.markup.line;strokeColor=#999999;direction=north;" parent="M4iSmOv2p4JiEZuP580J-59" vertex="1">
          <mxGeometry x="110" y="110" width="20" height="610" as="geometry" />
        </mxCell>
        <mxCell id="M4iSmOv2p4JiEZuP580J-63" value="" style="verticalLabelPosition=bottom;shadow=0;dashed=0;align=center;html=1;verticalAlign=top;strokeWidth=1;shape=mxgraph.mockup.markup.line;strokeColor=#999999;" parent="M4iSmOv2p4JiEZuP580J-59" vertex="1">
          <mxGeometry y="150" width="120" height="20" as="geometry" />
        </mxCell>
        <mxCell id="M4iSmOv2p4JiEZuP580J-64" value="Menu" style="text;html=1;strokeColor=none;fillColor=none;align=center;verticalAlign=middle;whiteSpace=wrap;rounded=0;fontSize=18;fontStyle=1" parent="M4iSmOv2p4JiEZuP580J-59" vertex="1">
          <mxGeometry x="30" y="120" width="60" height="30" as="geometry" />
        </mxCell>
        <mxCell id="M4iSmOv2p4JiEZuP580J-65" value="Resources" style="text;html=1;strokeColor=none;fillColor=none;align=center;verticalAlign=middle;whiteSpace=wrap;rounded=0;" parent="M4iSmOv2p4JiEZuP580J-59" vertex="1">
          <mxGeometry x="2" y="167" width="115" height="30" as="geometry" />
        </mxCell>
        <mxCell id="M4iSmOv2p4JiEZuP580J-66" value="" style="verticalLabelPosition=bottom;shadow=0;dashed=0;align=center;html=1;verticalAlign=top;strokeWidth=1;shape=mxgraph.mockup.markup.line;strokeColor=#999999;" parent="M4iSmOv2p4JiEZuP580J-59" vertex="1">
          <mxGeometry y="190" width="120" height="20" as="geometry" />
        </mxCell>
        <mxCell id="M4iSmOv2p4JiEZuP580J-67" value="Clerk dashboard" style="text;html=1;strokeColor=none;fillColor=none;align=left;verticalAlign=middle;whiteSpace=wrap;rounded=0;fontSize=29;fontStyle=1" parent="M4iSmOv2p4JiEZuP580J-59" vertex="1">
          <mxGeometry x="142" y="120" width="258" height="30" as="geometry" />
        </mxCell>
        <mxCell id="M4iSmOv2p4JiEZuP580J-68" value="ID" style="text;html=1;strokeColor=none;fillColor=none;align=left;verticalAlign=middle;whiteSpace=wrap;rounded=0;fontSize=15;fontStyle=1" parent="M4iSmOv2p4JiEZuP580J-59" vertex="1">
          <mxGeometry x="144" y="167" width="60" height="30" as="geometry" />
        </mxCell>
        <mxCell id="M4iSmOv2p4JiEZuP580J-69" value="FROM" style="text;html=1;strokeColor=none;fillColor=none;align=left;verticalAlign=middle;whiteSpace=wrap;rounded=0;fontSize=15;fontStyle=1" parent="M4iSmOv2p4JiEZuP580J-59" vertex="1">
          <mxGeometry x="190" y="167" width="60" height="30" as="geometry" />
        </mxCell>
        <mxCell id="M4iSmOv2p4JiEZuP580J-70" value="" style="verticalLabelPosition=bottom;shadow=0;dashed=0;align=center;html=1;verticalAlign=top;strokeWidth=1;shape=mxgraph.mockup.markup.line;strokeColor=#999999;" parent="M4iSmOv2p4JiEZuP580J-59" vertex="1">
          <mxGeometry x="120" y="191" width="1109" height="20" as="geometry" />
        </mxCell>
        <mxCell id="M4iSmOv2p4JiEZuP580J-71" value="" style="verticalLabelPosition=bottom;shadow=0;dashed=0;align=center;html=1;verticalAlign=top;strokeWidth=1;shape=mxgraph.mockup.markup.line;strokeColor=#999999;" parent="M4iSmOv2p4JiEZuP580J-59" vertex="1">
          <mxGeometry x="120" y="228" width="1109" height="20" as="geometry" />
        </mxCell>
        <mxCell id="M4iSmOv2p4JiEZuP580J-72" value="1" style="text;html=1;strokeColor=none;fillColor=none;align=left;verticalAlign=middle;whiteSpace=wrap;rounded=0;" parent="M4iSmOv2p4JiEZuP580J-59" vertex="1">
          <mxGeometry x="146" y="202" width="110" height="30" as="geometry" />
        </mxCell>
        <mxCell id="M4iSmOv2p4JiEZuP580J-73" value="" style="html=1;verticalLabelPosition=bottom;labelBackgroundColor=#ffffff;verticalAlign=top;shadow=0;dashed=0;strokeWidth=2;shape=mxgraph.ios7.misc.delete;fillColor=#ff0000;strokeColor=#ffffff;sketch=0;" parent="M4iSmOv2p4JiEZuP580J-59" vertex="1">
          <mxGeometry x="1100" y="211" width="17" height="16" as="geometry" />
        </mxCell>
        <mxCell id="M4iSmOv2p4JiEZuP580J-74" value="" style="html=1;verticalLabelPosition=bottom;align=center;labelBackgroundColor=#ffffff;verticalAlign=top;strokeWidth=2;strokeColor=#0080F0;shadow=0;dashed=0;shape=mxgraph.ios7.icons.add;" parent="M4iSmOv2p4JiEZuP580J-59" vertex="1">
          <mxGeometry x="1175" y="668" width="30" height="30" as="geometry" />
        </mxCell>
        <mxCell id="M4iSmOv2p4JiEZuP580J-75" value="&lt;font color=&quot;#828282&quot;&gt;Bookings&lt;/font&gt;" style="text;html=1;strokeColor=none;fillColor=none;align=left;verticalAlign=middle;whiteSpace=wrap;rounded=0;fontSize=29;fontStyle=1" parent="M4iSmOv2p4JiEZuP580J-59" vertex="1">
          <mxGeometry x="471" y="121" width="258" height="30" as="geometry" />
        </mxCell>
        <mxCell id="M4iSmOv2p4JiEZuP580J-76" value="" style="shape=mxgraph.arrows.chevron_arrow;html=1;verticalLabelPosition=bottom;verticalAlign=top;strokeWidth=2;strokeColor=#828282;" parent="M4iSmOv2p4JiEZuP580J-59" vertex="1">
          <mxGeometry x="408" y="121" width="50" height="30" as="geometry" />
        </mxCell>
        <mxCell id="M4iSmOv2p4JiEZuP580J-78" value="Book resources" style="rounded=1;fillColor=#0057D8;strokeColor=none;html=1;whiteSpace=wrap;fontColor=#ffffff;align=center;verticalAlign=middle;fontStyle=0;fontSize=12;sketch=0;" parent="M4iSmOv2p4JiEZuP580J-59" vertex="1">
          <mxGeometry x="7" y="260" width="110" height="33" as="geometry" />
        </mxCell>
        <mxCell id="M4iSmOv2p4JiEZuP580J-79" value="" style="html=1;verticalLabelPosition=bottom;labelBackgroundColor=#ffffff;verticalAlign=top;shadow=0;dashed=0;strokeWidth=2;shape=mxgraph.ios7.misc.left;strokeColor=#0080f0;fontSize=32;" parent="M4iSmOv2p4JiEZuP580J-59" vertex="1">
          <mxGeometry x="16" y="678" width="10" height="20" as="geometry" />
        </mxCell>
        <mxCell id="M4iSmOv2p4JiEZuP580J-80" value="LOGOUT" style="html=1;shadow=0;dashed=0;shape=mxgraph.bootstrap.rrect;rSize=5;strokeColor=none;strokeWidth=1;fillColor=none;fontColor=#0085FC;whiteSpace=wrap;align=center;verticalAlign=middle;spacingLeft=0;fontStyle=0;fontSize=16;spacing=5;" parent="M4iSmOv2p4JiEZuP580J-59" vertex="1">
          <mxGeometry x="39" y="668" width="60" height="40" as="geometry" />
        </mxCell>
        <mxCell id="M4iSmOv2p4JiEZuP580J-84" value="2023-04-05.17:00" style="dashed=0;html=1;fillColor=#F0F2F5;strokeColor=none;align=center;rounded=1;arcSize=10;fontColor=#596780;fontStyle=1;fontSize=11;shadow=0" parent="M4iSmOv2p4JiEZuP580J-59" vertex="1">
          <mxGeometry x="190" y="210" width="84" height="20" as="geometry" />
        </mxCell>
        <mxCell id="M4iSmOv2p4JiEZuP580J-85" value="2023-04-05.18:00" style="dashed=0;html=1;fillColor=#F0F2F5;strokeColor=none;align=center;rounded=1;arcSize=10;fontColor=#596780;fontStyle=1;fontSize=11;shadow=0" parent="M4iSmOv2p4JiEZuP580J-59" vertex="1">
          <mxGeometry x="320" y="208" width="84" height="20" as="geometry" />
        </mxCell>
        <mxCell id="M4iSmOv2p4JiEZuP580J-86" value="TO" style="text;html=1;strokeColor=none;fillColor=none;align=left;verticalAlign=middle;whiteSpace=wrap;rounded=0;fontSize=15;fontStyle=1" parent="M4iSmOv2p4JiEZuP580J-59" vertex="1">
          <mxGeometry x="320" y="167" width="60" height="30" as="geometry" />
        </mxCell>
        <mxCell id="M4iSmOv2p4JiEZuP580J-87" value="INSTITUTION" style="text;html=1;strokeColor=none;fillColor=none;align=left;verticalAlign=middle;whiteSpace=wrap;rounded=0;fontSize=15;fontStyle=1" parent="M4iSmOv2p4JiEZuP580J-59" vertex="1">
          <mxGeometry x="436" y="167" width="60" height="30" as="geometry" />
        </mxCell>
        <mxCell id="M4iSmOv2p4JiEZuP580J-88" value="Parirenyatwa" style="text;html=1;strokeColor=none;fillColor=none;align=center;verticalAlign=middle;whiteSpace=wrap;rounded=0;" parent="M4iSmOv2p4JiEZuP580J-59" vertex="1">
          <mxGeometry x="443" y="204" width="60" height="30" as="geometry" />
        </mxCell>
        <mxCell id="M4iSmOv2p4JiEZuP580J-89" value="Resources" style="text;html=1;strokeColor=none;fillColor=none;align=left;verticalAlign=middle;whiteSpace=wrap;rounded=0;fontSize=15;fontStyle=1" parent="M4iSmOv2p4JiEZuP580J-59" vertex="1">
          <mxGeometry x="570" y="167" width="100" height="30" as="geometry" />
        </mxCell>
        <mxCell id="M4iSmOv2p4JiEZuP580J-90" value="X-Ray Machine" style="dashed=0;html=1;fillColor=#F0F2F5;strokeColor=none;align=center;rounded=1;arcSize=10;fontColor=#596780;fontStyle=1;fontSize=11;shadow=0" parent="M4iSmOv2p4JiEZuP580J-59" vertex="1">
          <mxGeometry x="560" y="208" width="97" height="20" as="geometry" />
        </mxCell>
        <mxCell id="M4iSmOv2p4JiEZuP580J-91" value="Maternity ward Bed 4" style="dashed=0;html=1;fillColor=#F0F2F5;strokeColor=none;align=center;rounded=1;arcSize=10;fontColor=#596780;fontStyle=1;fontSize=11;shadow=0" parent="M4iSmOv2p4JiEZuP580J-59" vertex="1">
          <mxGeometry x="670" y="208" width="130" height="20" as="geometry" />
        </mxCell>
        <mxCell id="M4iSmOv2p4JiEZuP580J-81" value="Bookings" style="text;html=1;strokeColor=none;fillColor=none;align=center;verticalAlign=middle;whiteSpace=wrap;rounded=0;" parent="1" vertex="1">
          <mxGeometry x="113" y="1104" width="114" height="30" as="geometry" />
        </mxCell>
        <mxCell id="M4iSmOv2p4JiEZuP580J-82" value="" style="verticalLabelPosition=bottom;shadow=0;dashed=0;align=center;html=1;verticalAlign=top;strokeWidth=1;shape=mxgraph.mockup.markup.line;strokeColor=#999999;" parent="1" vertex="1">
          <mxGeometry x="111" y="1127" width="120" height="20" as="geometry" />
        </mxCell>
        <mxCell id="M4iSmOv2p4JiEZuP580J-83" value="" style="verticalLabelPosition=bottom;shadow=0;dashed=0;align=center;html=1;verticalAlign=top;strokeWidth=1;shape=mxgraph.mockup.markup.line;strokeColor=#999999;" parent="1" vertex="1">
          <mxGeometry x="231" y="1050" width="1109" height="20" as="geometry" />
        </mxCell>
        <mxCell id="M4iSmOv2p4JiEZuP580J-92" value="" style="strokeWidth=1;shadow=0;dashed=0;align=center;html=1;shape=mxgraph.mockup.containers.browserWindow;rSize=0;strokeColor=#666666;strokeColor2=#008cff;strokeColor3=#c4c4c4;mainText=,;recursiveResize=0;" parent="1" vertex="1">
          <mxGeometry x="110" y="1688" width="1230" height="720" as="geometry" />
        </mxCell>
        <mxCell id="M4iSmOv2p4JiEZuP580J-93" value="Dashboard" style="strokeWidth=1;shadow=0;dashed=0;align=center;html=1;shape=mxgraph.mockup.containers.anchor;fontSize=17;fontColor=#666666;align=left;whiteSpace=wrap;" parent="M4iSmOv2p4JiEZuP580J-92" vertex="1">
          <mxGeometry x="60" y="12" width="110" height="26" as="geometry" />
        </mxCell>
        <mxCell id="M4iSmOv2p4JiEZuP580J-94" value="https://www.draw.io" style="strokeWidth=1;shadow=0;dashed=0;align=center;html=1;shape=mxgraph.mockup.containers.anchor;rSize=0;fontSize=17;fontColor=#666666;align=left;" parent="M4iSmOv2p4JiEZuP580J-92" vertex="1">
          <mxGeometry x="130" y="60" width="250" height="26" as="geometry" />
        </mxCell>
        <mxCell id="M4iSmOv2p4JiEZuP580J-124" value="&lt;b&gt;Check availability&lt;/b&gt;" style="html=1;shadow=0;dashed=0;shape=mxgraph.bootstrap.rrect;rSize=5;html=1;strokeColor=#C8C8C8;fillColor=#ffffff;whiteSpace=wrap;verticalAlign=top;align=left;fontSize=18;spacing=15;spacingTop=-5;labelBorderColor=none;" parent="M4iSmOv2p4JiEZuP580J-92" vertex="1">
          <mxGeometry x="304" y="180" width="400" height="450" as="geometry" />
        </mxCell>
        <mxCell id="M4iSmOv2p4JiEZuP580J-125" value="" style="shape=line;strokeColor=#dddddd;resizeWidth=1;" parent="M4iSmOv2p4JiEZuP580J-124" vertex="1">
          <mxGeometry width="400" height="10" relative="1" as="geometry">
            <mxPoint y="50" as="offset" />
          </mxGeometry>
        </mxCell>
        <mxCell id="M4iSmOv2p4JiEZuP580J-126" value="" style="html=1;shadow=0;dashed=0;shape=mxgraph.bootstrap.x;strokeColor=#868686;strokeWidth=2;" parent="M4iSmOv2p4JiEZuP580J-124" vertex="1">
          <mxGeometry x="1" width="8" height="8" relative="1" as="geometry">
            <mxPoint x="-24" y="20" as="offset" />
          </mxGeometry>
        </mxCell>
        <mxCell id="M4iSmOv2p4JiEZuP580J-135" value="Check" style="html=1;shadow=0;dashed=0;shape=mxgraph.bootstrap.rrect;rSize=5;fillColor=#0085FC;strokeColor=none;fontColor=#FFFFFF;fontSize=14;" parent="M4iSmOv2p4JiEZuP580J-124" vertex="1">
          <mxGeometry x="1" y="1" width="110" height="40" relative="1" as="geometry">
            <mxPoint x="-130" y="-60" as="offset" />
          </mxGeometry>
        </mxCell>
        <mxCell id="M4iSmOv2p4JiEZuP580J-136" value="Close" style="html=1;shadow=0;dashed=0;shape=mxgraph.bootstrap.rrect;rSize=5;fillColor=#6C757D;strokeColor=none;fontColor=#FFFFFF;fontSize=14;" parent="M4iSmOv2p4JiEZuP580J-124" vertex="1">
          <mxGeometry x="1" y="1" width="70" height="40" relative="1" as="geometry">
            <mxPoint x="-220" y="-60" as="offset" />
          </mxGeometry>
        </mxCell>
        <mxCell id="M4iSmOv2p4JiEZuP580J-137" value="&lt;font face=&quot;Helvetica&quot;&gt;Starting time&lt;/font&gt;" style="fillColor=none;strokeColor=none;html=1;fontSize=11;fontStyle=0;align=left;fontColor=#596780;fontStyle=1;fontSize=11;sketch=1;hachureGap=4;pointerEvents=0;fontFamily=Architects Daughter;fontSource=https%3A%2F%2Ffonts.googleapis.com%2Fcss%3Ffamily%3DArchitects%2BDaughter;" parent="M4iSmOv2p4JiEZuP580J-124" vertex="1">
          <mxGeometry x="16" y="61.76470588235294" width="240" height="17.647058823529413" as="geometry" />
        </mxCell>
        <mxCell id="M4iSmOv2p4JiEZuP580J-138" value="" style="rounded=1;arcSize=9;fillColor=#F7F8F9;align=left;spacingLeft=5;strokeColor=#DEE1E6;html=1;strokeWidth=2;fontColor=#596780;fontSize=12;sketch=1;hachureGap=4;pointerEvents=0;fontFamily=Architects Daughter;fontSource=https%3A%2F%2Ffonts.googleapis.com%2Fcss%3Ffamily%3DArchitects%2BDaughter;" parent="M4iSmOv2p4JiEZuP580J-124" vertex="1">
          <mxGeometry x="16" y="83.82352941176471" width="364" height="29.11764705882353" as="geometry" />
        </mxCell>
        <mxCell id="M4iSmOv2p4JiEZuP580J-139" value="" style="shape=mxgraph.gmdl.calendar;fillColor=#5A6881;strokeColor=none;sketch=0;hachureGap=4;pointerEvents=0;fontFamily=Architects Daughter;fontSource=https%3A%2F%2Ffonts.googleapis.com%2Fcss%3Ffamily%3DArchitects%2BDaughter;fontSize=20;" parent="M4iSmOv2p4JiEZuP580J-138" vertex="1">
          <mxGeometry x="1" y="0.5" width="18" height="18" relative="1" as="geometry">
            <mxPoint x="-29" y="-9" as="offset" />
          </mxGeometry>
        </mxCell>
        <mxCell id="M4iSmOv2p4JiEZuP580J-140" value="&lt;font face=&quot;Helvetica&quot;&gt;Resources&lt;/font&gt;" style="fillColor=none;strokeColor=none;html=1;fontSize=11;fontStyle=0;align=left;fontColor=#596780;fontStyle=1;fontSize=11;sketch=1;hachureGap=4;pointerEvents=0;fontFamily=Architects Daughter;fontSource=https%3A%2F%2Ffonts.googleapis.com%2Fcss%3Ffamily%3DArchitects%2BDaughter;" parent="M4iSmOv2p4JiEZuP580J-124" vertex="1">
          <mxGeometry x="16" y="132.35294117647058" width="240" height="17.647058823529413" as="geometry" />
        </mxCell>
        <mxCell id="M4iSmOv2p4JiEZuP580J-172" value="" style="rounded=1;arcSize=9;fillColor=#ffffff;strokeColor=#4C9AFF;html=1;strokeWidth=2;spacingLeft=30;fontColor=#000000;align=left;labelBorderColor=#FFFFFF;" parent="M4iSmOv2p4JiEZuP580J-124" vertex="1">
          <mxGeometry x="17" y="157.05882352941177" width="363" height="29.11764705882353" as="geometry" />
        </mxCell>
        <mxCell id="M4iSmOv2p4JiEZuP580J-173" value="X-Ray Machine" style="rounded=1;arcSize=50;fillColor=#ECEDF1;strokeColor=none;html=1;strokeWidth=2;spacingLeft=23;fontColor=#000000;align=left;fontSize=11" parent="M4iSmOv2p4JiEZuP580J-172" vertex="1">
          <mxGeometry y="0.5" width="130" height="20" relative="1" as="geometry">
            <mxPoint x="5" y="-10" as="offset" />
          </mxGeometry>
        </mxCell>
        <mxCell id="M4iSmOv2p4JiEZuP580J-174" value="" style="html=1;shadow=0;dashed=0;shape=mxgraph.atlassian.x;strokeColor=#58667F;strokeWidth=2" parent="M4iSmOv2p4JiEZuP580J-173" vertex="1">
          <mxGeometry x="1" y="0.5" width="7" height="7" relative="1" as="geometry">
            <mxPoint x="-14" y="-3" as="offset" />
          </mxGeometry>
        </mxCell>
        <mxCell id="M4iSmOv2p4JiEZuP580J-176" value="Lisa Hill" style="rounded=1;arcSize=50;fillColor=#ECEDF1;strokeColor=none;html=1;strokeWidth=2;spacingLeft=23;fontColor=#000000;align=left;fontSize=11" parent="M4iSmOv2p4JiEZuP580J-172" vertex="1">
          <mxGeometry y="0.5" width="95" height="20" relative="1" as="geometry">
            <mxPoint x="145" y="-10" as="offset" />
          </mxGeometry>
        </mxCell>
        <mxCell id="M4iSmOv2p4JiEZuP580J-177" value="" style="html=1;shadow=0;dashed=0;shape=mxgraph.atlassian.x;strokeColor=#58667F;strokeWidth=2" parent="M4iSmOv2p4JiEZuP580J-176" vertex="1">
          <mxGeometry x="1" y="0.5" width="7" height="7" relative="1" as="geometry">
            <mxPoint x="-14" y="-3" as="offset" />
          </mxGeometry>
        </mxCell>
        <mxCell id="M4iSmOv2p4JiEZuP580J-188" value="" style="strokeWidth=1;shadow=0;dashed=0;align=center;html=1;shape=mxgraph.mockup.containers.browserWindow;rSize=0;strokeColor=#666666;strokeColor2=#008cff;strokeColor3=#c4c4c4;mainText=,;recursiveResize=0;" parent="1" vertex="1">
          <mxGeometry x="110" y="2490" width="1230" height="720" as="geometry" />
        </mxCell>
        <mxCell id="M4iSmOv2p4JiEZuP580J-189" value="Dashboard" style="strokeWidth=1;shadow=0;dashed=0;align=center;html=1;shape=mxgraph.mockup.containers.anchor;fontSize=17;fontColor=#666666;align=left;whiteSpace=wrap;" parent="M4iSmOv2p4JiEZuP580J-188" vertex="1">
          <mxGeometry x="60" y="12" width="110" height="26" as="geometry" />
        </mxCell>
        <mxCell id="M4iSmOv2p4JiEZuP580J-190" value="https://www.draw.io" style="strokeWidth=1;shadow=0;dashed=0;align=center;html=1;shape=mxgraph.mockup.containers.anchor;rSize=0;fontSize=17;fontColor=#666666;align=left;" parent="M4iSmOv2p4JiEZuP580J-188" vertex="1">
          <mxGeometry x="130" y="60" width="250" height="26" as="geometry" />
        </mxCell>
        <mxCell id="M4iSmOv2p4JiEZuP580J-191" value="&lt;b&gt;Place your booking&lt;/b&gt;" style="html=1;shadow=0;dashed=0;shape=mxgraph.bootstrap.rrect;rSize=5;html=1;strokeColor=#C8C8C8;fillColor=#ffffff;whiteSpace=wrap;verticalAlign=top;align=left;fontSize=18;spacing=15;spacingTop=-5;labelBorderColor=none;" parent="M4iSmOv2p4JiEZuP580J-188" vertex="1">
          <mxGeometry x="304" y="180" width="400" height="450" as="geometry" />
        </mxCell>
        <mxCell id="M4iSmOv2p4JiEZuP580J-192" value="" style="shape=line;strokeColor=#dddddd;resizeWidth=1;" parent="M4iSmOv2p4JiEZuP580J-191" vertex="1">
          <mxGeometry width="400" height="10" relative="1" as="geometry">
            <mxPoint y="50" as="offset" />
          </mxGeometry>
        </mxCell>
        <mxCell id="M4iSmOv2p4JiEZuP580J-193" value="" style="html=1;shadow=0;dashed=0;shape=mxgraph.bootstrap.x;strokeColor=#868686;strokeWidth=2;" parent="M4iSmOv2p4JiEZuP580J-191" vertex="1">
          <mxGeometry x="1" width="8" height="8" relative="1" as="geometry">
            <mxPoint x="-24" y="20" as="offset" />
          </mxGeometry>
        </mxCell>
        <mxCell id="M4iSmOv2p4JiEZuP580J-194" value="Book" style="html=1;shadow=0;dashed=0;shape=mxgraph.bootstrap.rrect;rSize=5;fillColor=#0085FC;strokeColor=none;fontColor=#FFFFFF;fontSize=14;" parent="M4iSmOv2p4JiEZuP580J-191" vertex="1">
          <mxGeometry x="1" y="1" width="110" height="40" relative="1" as="geometry">
            <mxPoint x="-130" y="-60" as="offset" />
          </mxGeometry>
        </mxCell>
        <mxCell id="M4iSmOv2p4JiEZuP580J-195" value="Close" style="html=1;shadow=0;dashed=0;shape=mxgraph.bootstrap.rrect;rSize=5;fillColor=#6C757D;strokeColor=none;fontColor=#FFFFFF;fontSize=14;" parent="M4iSmOv2p4JiEZuP580J-191" vertex="1">
          <mxGeometry x="1" y="1" width="70" height="40" relative="1" as="geometry">
            <mxPoint x="-220" y="-60" as="offset" />
          </mxGeometry>
        </mxCell>
        <mxCell id="M4iSmOv2p4JiEZuP580J-205" value="Mpilo Hospital" style="text;html=1;strokeColor=none;fillColor=none;align=left;verticalAlign=middle;whiteSpace=wrap;rounded=0;fontStyle=1;fontSize=19;" parent="M4iSmOv2p4JiEZuP580J-191" vertex="1">
          <mxGeometry x="13" y="71" width="145" height="30" as="geometry" />
        </mxCell>
        <mxCell id="M4iSmOv2p4JiEZuP580J-206" value="&lt;font style=&quot;font-size: 16px;&quot;&gt;Available on 17/17/17@20:30&lt;/font&gt;" style="text;html=1;strokeColor=none;fillColor=none;align=left;verticalAlign=middle;whiteSpace=wrap;rounded=0;fontSize=20;fontStyle=1;fontColor=#777777;" parent="M4iSmOv2p4JiEZuP580J-191" vertex="1">
          <mxGeometry x="14" y="95" width="224" height="30" as="geometry" />
        </mxCell>
        <mxCell id="M4iSmOv2p4JiEZuP580J-208" value="" style="verticalLabelPosition=bottom;shadow=0;dashed=0;align=center;html=1;verticalAlign=top;strokeWidth=0.5;shape=mxgraph.mockup.markup.line;strokeColor=#999999;" parent="M4iSmOv2p4JiEZuP580J-191" vertex="1">
          <mxGeometry y="130" width="400" height="20" as="geometry" />
        </mxCell>
        <mxCell id="M4iSmOv2p4JiEZuP580J-209" value="Parirenyatwa" style="text;html=1;strokeColor=none;fillColor=none;align=left;verticalAlign=middle;whiteSpace=wrap;rounded=0;fontStyle=1;fontSize=19;" parent="M4iSmOv2p4JiEZuP580J-191" vertex="1">
          <mxGeometry x="13" y="150" width="145" height="30" as="geometry" />
        </mxCell>
        <mxCell id="M4iSmOv2p4JiEZuP580J-210" value="&lt;font style=&quot;font-size: 16px;&quot;&gt;Available on 17/17/17@20:30&lt;/font&gt;" style="text;html=1;strokeColor=none;fillColor=none;align=left;verticalAlign=middle;whiteSpace=wrap;rounded=0;fontSize=20;fontStyle=1;fontColor=#777777;" parent="M4iSmOv2p4JiEZuP580J-191" vertex="1">
          <mxGeometry x="14" y="174" width="224" height="30" as="geometry" />
        </mxCell>
        <mxCell id="M4iSmOv2p4JiEZuP580J-211" value="" style="verticalLabelPosition=bottom;shadow=0;dashed=0;align=center;html=1;verticalAlign=top;strokeWidth=0.5;shape=mxgraph.mockup.markup.line;strokeColor=#999999;" parent="M4iSmOv2p4JiEZuP580J-191" vertex="1">
          <mxGeometry y="209" width="400" height="20" as="geometry" />
        </mxCell>
      </root>
    </mxGraphModel>
  </diagram>
</mxfile>
